# xmcd CD database file
#
# Track frame offsets:
#	187
#	22162
#	43725
#	63385
#
# Disc length: 1138 seconds
#
# Revision: 0
# Processed by: cddbd v1.5.1PL0 Copyright (c) Steve Scherf et al.
# Submitted via: CDex 1.51
#
DISCID=33047004
DTITLE=LOVE CONNECTION - YOU'RE THE ONLY ONE
DYEAR=1997
DGENRE=Anime
TTITLE0=YOU'RE THE ONLY ONE
TTITLE1=土曜の夜と日曜の朝
TTITLE2=YOU'RE THE ONLY ONE (UK Version)
TTITLE3=YOU'RE THE ONLY ONE (INST.)
EXTD=YEAR: 1997
EXTT0=
EXTT1=
EXTT2=
EXTT3=
PLAYORDER=
